<?xml version="1.0" encoding="utf-8"?>
<svg viewBox="56977.8008 -285.025 1050 588" xmlns="http://www.w3.org/2000/svg" xmlns:xlink="http://www.w3.org/1999/xlink">
  <g id="6">
    <title>Group</title>
    <defs>
      <title>Shape 295</title>
      <g id="7">
        <defs>
          <path id="8" d="M57978.1,-4.57496 C57978.1,-4.57496,57952.2,-4.57496,57952.2,-4.57496 C57952.2,-4.57496,57950.9,-4.57496,57950.9,-4.57496 C57950.5,-4.89235,57950.2,-5.20974,57949.9,-5.52713 C57939,-16.4097,57928.1,-27.2924,57917.3,-38.175 C57917.3,-38.175,57885,-38.175,57885,-38.175 C57885,-38.175,57851.4,-38.175,57851.4,-38.175 C57851.4,-38.175,57817.8,-38.175,57817.8,-38.175 C57817.8,-38.175,57784.2,-38.175,57784.2,-38.175 C57784.2,-38.175,57750.6,-38.175,57750.6,-38.175 C57750.6,-38.175,57717,-38.175,57717,-38.175 C57717,-38.175,57683.4,-38.175,57683.4,-38.175 C57683.4,-38.175,57649.8,-38.175,57649.8,-38.175 C57649.8,-38.175,57617.6,-38.175,57617.6,-38.175 C57606.7,-27.2922,57595.8,-16.4095,57584.9,-5.52677 C57584.9,-5.52677,57584,-4.57496,57584,-4.57496 C57584,-4.57496,57582.6,-4.57496,57582.6,-4.57496 C57582.6,-4.57496,57549,-4.57496,57549,-4.57496 C57549,-4.57496,57515.4,-4.57496,57515.4,-4.57496 C57515.4,-4.57496,57481.8,-4.57496,57481.8,-4.57496 C57481.8,-4.57496,57448.2,-4.57496,57448.2,-4.57496 C57448.2,-4.57496,57414.6,-4.57496,57414.6,-4.57496 C57414.6,-4.57496,57381,-4.57496,57381,-4.57496 C57381,-4.57496,57347.4,-4.57496,57347.4,-4.57496 C57347.4,-4.57496,57313.8,-4.57496,57313.8,-4.57496 C57313.8,-4.57496,57280.2,-4.57496,57280.2,-4.57496 C57280.2,-4.57496,57246.6,-4.57496,57246.6,-4.57496 C57246.6,-4.57496,57213,-4.57496,57213,-4.57496 C57213,-4.57496,57179.4,-4.57496,57179.4,-4.57496 C57179.4,-4.57496,57145.8,-4.57496,57145.8,-4.57496 C57145.8,-4.57496,57112.2,-4.57496,57112.2,-4.57496 C57112.2,-4.57496,57078.6,-4.57496,57078.6,-4.57496 C57078.6,-4.57496,57045,-4.57496,57045,-4.57496 C57045,-4.57496,57011.4,-4.57496,57011.4,-4.57496 C57011.4,-4.57496,56977.8,-4.57496,56977.8,-4.57496 C56977.8,-4.57496,56977.8,-11.075,56977.8,-11.075 C56977.8,-11.075,57011.4,-11.075,57011.4,-11.075 C57011.4,-11.075,57045,-11.075,57045,-11.075 C57045,-11.075,57078.6,-11.075,57078.6,-11.075 C57078.6,-11.075,57112.2,-11.075,57112.2,-11.075 C57112.2,-11.075,57145.8,-11.075,57145.8,-11.075 C57145.8,-11.075,57179.4,-11.075,57179.4,-11.075 C57179.4,-11.075,57213,-11.075,57213,-11.075 C57213,-11.075,57246.6,-11.075,57246.6,-11.075 C57246.6,-11.075,57280.2,-11.075,57280.2,-11.075 C57280.2,-11.075,57313.8,-11.075,57313.8,-11.075 C57313.8,-11.075,57347.4,-11.075,57347.4,-11.075 C57347.4,-11.075,57381,-11.075,57381,-11.075 C57381,-11.075,57414.6,-11.075,57414.6,-11.075 C57414.6,-11.075,57448.2,-11.075,57448.2,-11.075 C57448.2,-11.075,57481.8,-11.075,57481.8,-11.075 C57481.8,-11.075,57515.4,-11.075,57515.4,-11.075 C57515.4,-11.075,57549,-11.075,57549,-11.075 C57549,-11.075,57581.3,-11.075,57581.3,-11.075 C57592.1,-21.9576,57603,-32.8402,57613.9,-43.7228 C57614.2,-44.0402,57614.5,-44.3576,57614.9,-44.675 C57614.9,-44.675,57616.2,-44.675,57616.2,-44.675 C57616.2,-44.675,57649.8,-44.675,57649.8,-44.675 C57649.8,-44.675,57683.4,-44.675,57683.4,-44.675 C57683.4,-44.675,57717,-44.675,57717,-44.675 C57717,-44.675,57750.6,-44.675,57750.6,-44.675 C57750.6,-44.675,57784.2,-44.675,57784.2,-44.675 C57784.2,-44.675,57817.8,-44.675,57817.8,-44.675 C57817.8,-44.675,57851.4,-44.675,57851.4,-44.675 C57851.4,-44.675,57885,-44.675,57885,-44.675 C57885,-44.675,57918.6,-44.675,57918.6,-44.675 C57918.6,-44.675,57920,-44.675,57920,-44.675 C57920,-44.675,57920.9,-43.7232,57920.9,-43.7232 C57931.8,-32.8404,57942.7,-21.9577,57953.6,-11.075 C57953.6,-11.075,57978.1,-11.075,57978.1,-11.075 C57978.8,-12.7412,57980,-14.1664,57981.6,-15.0996 C57984.2,-16.6001,57987.4,-16.6001,57990,-15.0996 C57992.6,-13.5991,57994.2,-10.826,57994.2,-7.82496 C57994.2,-4.82394,57992.6,-2.05086,57990,-0.550343 C57987.4,0.950173,57984.2,0.950173,57981.6,-0.550343 C57980,-1.48348,57978.8,-2.90877,57978.1,-4.57496 z"/>
        </defs>
        <use style="fill:#000000;fill-opacity:1;fill-rule:evenodd;opacity:1;stroke:none;" xlink:href="#8"/>
      </g>
    </defs>
    <use xlink:href="#7"/>
    <defs>
      <title>Shape 294</title>
      <g id="9">
        <defs>
          <path id="10" d="M57982.6,-33.6496 C57973.3,-24.2752,57963.9,-14.9009,57954.5,-5.52663 C57953,-7.05886,57951.4,-8.59107,57949.9,-10.1233 C57949.9,-10.1233,57978,-38.2459,57978,-38.2459 C57977.6,-39.2394,57977.4,-40.3166,57977.4,-41.425 C57977.4,-44.426,57979,-47.1991,57981.6,-48.6996 C57984.2,-50.2001,57987.4,-50.2001,57990,-48.6996 C57992.6,-47.1991,57994.2,-44.426,57994.2,-41.425 C57994.2,-38.4239,57992.6,-35.6509,57990,-34.1503 C57987.7,-32.8412,57985,-32.6742,57982.6,-33.6496 z"/>
        </defs>
        <use style="fill:#000000;fill-opacity:1;fill-rule:evenodd;opacity:1;stroke:none;" xlink:href="#10"/>
      </g>
    </defs>
    <use xlink:href="#9"/>
    <defs>
      <title>Shape 293</title>
      <g id="11">
        <defs>
          <path id="12" d="M57541.3,62.625 C57541.3,62.625,57515.4,62.625,57515.4,62.625 C57515.4,62.625,57481.8,62.625,57481.8,62.625 C57481.8,62.625,57480.5,62.625,57480.5,62.625 C57480.1,62.3077,57479.8,61.9904,57479.5,61.673 C57468.3,50.4731,57457.1,39.2733,57445.9,28.0734 C57434.7,16.873,57423.5,5.67311,57412.3,-5.52677 C57413.8,-7.0589,57415.4,-8.59103,57416.9,-10.1232 C57428.1,1.07696,57439.3,12.2771,57450.5,23.4772 C57461.4,34.3595,57472.3,45.2423,57483.2,56.125 C57483.2,56.125,57515.4,56.125,57515.4,56.125 C57515.4,56.125,57541.3,56.125,57541.3,56.125 C57542,54.4588,57543.2,53.0336,57544.8,52.1004 C57547.4,50.5999,57550.6,50.5999,57553.2,52.1004 C57555.8,53.6009,57557.4,56.374,57557.4,59.375 C57557.4,62.3761,57555.8,65.1491,57553.2,66.6497 C57550.6,68.1502,57547.4,68.1502,57544.8,66.6497 C57543.2,65.7165,57542,64.2912,57541.3,62.625 z"/>
        </defs>
        <use style="fill:#000000;fill-opacity:1;fill-rule:evenodd;opacity:1;stroke:none;" xlink:href="#12"/>
      </g>
    </defs>
    <use xlink:href="#11"/>
    <defs>
      <title>Shape 292</title>
      <g id="13">
        <defs>
          <path id="14" d="M57474,22.596 C57474,22.596,57445.9,-5.52664,57445.9,-5.52664 C57447.4,-7.05886,57449,-8.59107,57450.5,-10.1233 C57459.9,-0.748956,57469.3,8.62537,57478.6,17.9997 C57481,17.0243,57483.7,17.1912,57486,18.5004 C57488.6,20.0009,57490.2,22.774,57490.2,25.775 C57490.2,28.7761,57488.6,31.5491,57486,33.0497 C57483.4,34.5502,57480.2,34.5502,57477.6,33.0497 C57475,31.5491,57473.4,28.7761,57473.4,25.775 C57473.4,24.6667,57473.6,23.5895,57474,22.596 z"/>
        </defs>
        <use style="fill:#000000;fill-opacity:1;fill-rule:evenodd;opacity:1;stroke:none;" xlink:href="#14"/>
      </g>
    </defs>
    <use xlink:href="#13"/>
    <defs>
      <title>Shape 291</title>
      <g id="15">
        <defs>
          <path id="16" d="M57675.7,-71.775 C57675.7,-71.775,57649.8,-71.775,57649.8,-71.775 C57649.8,-71.775,57617.6,-71.775,57617.6,-71.775 C57606.7,-60.8922,57595.8,-50.0095,57584.9,-39.1268 C57584.9,-39.1268,57584,-38.175,57584,-38.175 C57584,-38.175,57582.6,-38.175,57582.6,-38.175 C57582.6,-38.175,57549,-38.175,57549,-38.175 C57549,-38.175,57515.4,-38.175,57515.4,-38.175 C57515.4,-38.175,57481.8,-38.175,57481.8,-38.175 C57481.8,-38.175,57448.2,-38.175,57448.2,-38.175 C57448.2,-38.175,57414.6,-38.175,57414.6,-38.175 C57414.6,-38.175,57381,-38.175,57381,-38.175 C57381,-38.175,57348.8,-38.175,57348.8,-38.175 C57337.9,-27.2922,57327,-16.4094,57316.1,-5.52664 C57314.6,-7.05886,57313,-8.59107,57311.5,-10.1233 C57322.7,-21.3232,57333.9,-32.5231,57345.1,-43.7229 C57345.4,-44.0403,57345.7,-44.3576,57346.1,-44.675 C57346.1,-44.675,57347.4,-44.675,57347.4,-44.675 C57347.4,-44.675,57381,-44.675,57381,-44.675 C57381,-44.675,57414.6,-44.675,57414.6,-44.675 C57414.6,-44.675,57448.2,-44.675,57448.2,-44.675 C57448.2,-44.675,57481.8,-44.675,57481.8,-44.675 C57481.8,-44.675,57515.4,-44.675,57515.4,-44.675 C57515.4,-44.675,57549,-44.675,57549,-44.675 C57549,-44.675,57581.3,-44.675,57581.3,-44.675 C57592.1,-55.5576,57603,-66.4402,57613.9,-77.3228 C57614.2,-77.6402,57614.5,-77.9576,57614.9,-78.275 C57614.9,-78.275,57616.2,-78.275,57616.2,-78.275 C57616.2,-78.275,57649.8,-78.275,57649.8,-78.275 C57649.8,-78.275,57675.7,-78.275,57675.7,-78.275 C57676.4,-79.9412,57677.6,-81.3664,57679.2,-82.2996 C57681.8,-83.8001,57685,-83.8001,57687.6,-82.2996 C57690.2,-80.7991,57691.8,-78.026,57691.8,-75.025 C57691.8,-72.0239,57690.2,-69.2509,57687.6,-67.7503 C57685,-66.2498,57681.8,-66.2498,57679.2,-67.7503 C57677.6,-68.6835,57676.4,-70.1088,57675.7,-71.775 z"/>
        </defs>
        <use style="fill:#000000;fill-opacity:1;fill-rule:evenodd;opacity:1;stroke:none;" xlink:href="#16"/>
      </g>
    </defs>
    <use xlink:href="#15"/>
    <defs>
      <title>Shape 290</title>
      <g id="17">
        <defs>
          <path id="18" d="M57843.7,-71.775 C57843.7,-71.775,57817.8,-71.775,57817.8,-71.775 C57817.8,-71.775,57785.6,-71.775,57785.6,-71.775 C57774.7,-60.8922,57763.8,-50.0095,57752.9,-39.1268 C57751.4,-40.6589,57749.8,-42.191,57748.3,-43.7232 C57759.5,-54.923,57770.7,-66.1229,57781.9,-77.3228 C57782.2,-77.6402,57782.5,-77.9576,57782.9,-78.275 C57782.9,-78.275,57784.2,-78.275,57784.2,-78.275 C57784.2,-78.275,57817.8,-78.275,57817.8,-78.275 C57817.8,-78.275,57843.7,-78.275,57843.7,-78.275 C57844.4,-79.9412,57845.6,-81.3664,57847.2,-82.2996 C57849.8,-83.8001,57853,-83.8001,57855.6,-82.2996 C57858.2,-80.7991,57859.8,-78.026,57859.8,-75.025 C57859.8,-72.0239,57858.2,-69.2509,57855.6,-67.7503 C57853,-66.2498,57849.8,-66.2498,57847.2,-67.7503 C57845.6,-68.6835,57844.4,-70.1088,57843.7,-71.775 z"/>
        </defs>
        <use style="fill:#000000;fill-opacity:1;fill-rule:evenodd;opacity:1;stroke:none;" xlink:href="#18"/>
      </g>
    </defs>
    <use xlink:href="#17"/>
    <defs>
      <title>Shape 289</title>
      <g id="19">
        <defs>
          <path id="20" d="M57944.4,22.595 C57935.4,13.5383,57926.3,4.48169,57917.3,-4.57496 C57917.3,-4.57496,57885,-4.57496,57885,-4.57496 C57885,-4.57496,57851.4,-4.57496,57851.4,-4.57496 C57851.4,-4.57496,57850.1,-4.57496,57850.1,-4.57496 C57849.7,-4.89231,57849.4,-5.20964,57849.1,-5.52699 C57837.9,-16.7269,57826.7,-27.9268,57815.5,-39.1266 C57817,-40.6589,57818.6,-42.1911,57820.1,-43.7233 C57831,-32.8405,57841.9,-21.9577,57852.8,-11.075 C57852.8,-11.075,57885,-11.075,57885,-11.075 C57885,-11.075,57918.6,-11.075,57918.6,-11.075 C57918.6,-11.075,57920,-11.075,57920,-11.075 C57920,-11.075,57920.9,-10.1232,57920.9,-10.1232 C57930.3,-0.748888,57939.7,8.62539,57949,17.9997 C57951.4,17.0243,57954.1,17.1912,57956.4,18.5004 C57959,20.0009,57960.6,22.774,57960.6,25.775 C57960.6,28.7761,57959,31.5491,57956.4,33.0497 C57953.8,34.5502,57950.6,34.5502,57948,33.0497 C57945.4,31.5491,57943.8,28.7761,57943.8,25.775 C57943.8,24.6664,57944,23.5888,57944.4,22.595 z"/>
        </defs>
        <use style="fill:#000000;fill-opacity:1;fill-rule:evenodd;opacity:1;stroke:none;" xlink:href="#20"/>
      </g>
    </defs>
    <use xlink:href="#19"/>
    <defs>
      <title>Shape 288</title>
      <g id="21">
        <defs>
          <path id="22" d="M57339.7,29.025 C57339.7,29.025,57313.8,29.025,57313.8,29.025 C57313.8,29.025,57280.2,29.025,57280.2,29.025 C57280.2,29.025,57246.6,29.025,57246.6,29.025 C57246.6,29.025,57213,29.025,57213,29.025 C57213,29.025,57211.7,29.025,57211.7,29.025 C57211.7,29.025,57210.7,28.0729,57210.7,28.0729 C57199.5,16.873,57188.3,5.67311,57177.1,-5.52677 C57178.6,-7.0589,57180.2,-8.59102,57181.7,-10.1232 C57192.6,0.759577,57203.5,11.6423,57214.4,22.525 C57214.4,22.525,57246.6,22.525,57246.6,22.525 C57246.6,22.525,57280.2,22.525,57280.2,22.525 C57280.2,22.525,57313.8,22.525,57313.8,22.525 C57313.8,22.525,57339.7,22.525,57339.7,22.525 C57340.4,20.8588,57341.6,19.4336,57343.2,18.5004 C57345.8,16.9999,57349,16.9999,57351.6,18.5004 C57354.2,20.0009,57355.8,22.774,57355.8,25.775 C57355.8,28.7761,57354.2,31.5491,57351.6,33.0497 C57349,34.5502,57345.8,34.5502,57343.2,33.0497 C57341.6,32.1165,57340.4,30.6912,57339.7,29.025 z"/>
        </defs>
        <use style="fill:#000000;fill-opacity:1;fill-rule:evenodd;opacity:1;stroke:none;" xlink:href="#22"/>
      </g>
    </defs>
    <use xlink:href="#21"/>
    <defs>
      <title>Shape 287</title>
      <g id="23">
        <defs>
          <path id="24" d="M57642.1,129.825 C57642.1,129.825,57616.2,129.825,57616.2,129.825 C57616.2,129.825,57614.9,129.825,57614.9,129.825 C57614.5,129.508,57614.2,129.19,57613.9,128.873 C57603,117.99,57592.1,107.108,57581.3,96.225 C57581.3,96.225,57549,96.225,57549,96.225 C57549,96.225,57515.4,96.225,57515.4,96.225 C57515.4,96.225,57481.8,96.225,57481.8,96.225 C57481.8,96.225,57448.2,96.225,57448.2,96.225 C57448.2,96.225,57414.6,96.225,57414.6,96.225 C57414.6,96.225,57413.3,96.225,57413.3,96.225 C57412.9,95.9077,57412.6,95.5904,57412.3,95.273 C57401.4,84.3904,57390.5,73.5077,57379.7,62.625 C57379.7,62.625,57347.4,62.625,57347.4,62.625 C57347.4,62.625,57313.8,62.625,57313.8,62.625 C57313.8,62.625,57280.2,62.625,57280.2,62.625 C57280.2,62.625,57246.6,62.625,57246.6,62.625 C57246.6,62.625,57213,62.625,57213,62.625 C57213,62.625,57179.4,62.625,57179.4,62.625 C57179.4,62.625,57145.8,62.625,57145.8,62.625 C57145.8,62.625,57144.5,62.625,57144.5,62.625 C57144.1,62.3077,57143.8,61.9904,57143.5,61.673 C57132.6,50.7904,57121.7,39.9077,57110.9,29.025 C57110.9,29.025,57078.6,29.025,57078.6,29.025 C57078.6,29.025,57045,29.025,57045,29.025 C57045,29.025,57011.4,29.025,57011.4,29.025 C57011.4,29.025,56977.8,29.025,56977.8,29.025 C56977.8,29.025,56977.8,22.525,56977.8,22.525 C56977.8,22.525,57011.4,22.525,57011.4,22.525 C57011.4,22.525,57045,22.525,57045,22.525 C57045,22.525,57078.6,22.525,57078.6,22.525 C57078.6,22.525,57112.2,22.525,57112.2,22.525 C57112.2,22.525,57113.6,22.525,57113.6,22.525 C57113.6,22.525,57114.5,23.4767,57114.5,23.4767 C57125.4,34.3595,57136.3,45.2423,57147.2,56.125 C57147.2,56.125,57179.4,56.125,57179.4,56.125 C57179.4,56.125,57213,56.125,57213,56.125 C57213,56.125,57246.6,56.125,57246.6,56.125 C57246.6,56.125,57280.2,56.125,57280.2,56.125 C57280.2,56.125,57313.8,56.125,57313.8,56.125 C57313.8,56.125,57347.4,56.125,57347.4,56.125 C57347.4,56.125,57381,56.125,57381,56.125 C57381,56.125,57382.4,56.125,57382.4,56.125 C57382.4,56.125,57383.3,57.0767,57383.3,57.0767 C57394.2,67.9595,57405.1,78.8423,57416,89.725 C57416,89.725,57448.2,89.725,57448.2,89.725 C57448.2,89.725,57481.8,89.725,57481.8,89.725 C57481.8,89.725,57515.4,89.725,57515.4,89.725 C57515.4,89.725,57549,89.725,57549,89.725 C57549,89.725,57582.6,89.725,57582.6,89.725 C57582.6,89.725,57584,89.725,57584,89.725 C57584,89.725,57584.9,90.6768,57584.9,90.6768 C57595.8,101.56,57606.7,112.442,57617.6,123.325 C57617.6,123.325,57642.1,123.325,57642.1,123.325 C57642.8,121.659,57644,120.234,57645.6,119.3 C57648.2,117.8,57651.4,117.8,57654,119.3 C57656.6,120.801,57658.2,123.574,57658.2,126.575 C57658.2,129.576,57656.6,132.349,57654,133.85 C57651.4,135.35,57648.2,135.35,57645.6,133.85 C57644,132.917,57642.8,131.491,57642.1,129.825 z"/>
        </defs>
        <use style="fill:#000000;fill-opacity:1;fill-rule:evenodd;opacity:1;stroke:none;" xlink:href="#24"/>
      </g>
    </defs>
    <use xlink:href="#23"/>
    <defs>
      <title>Shape 286</title>
      <g id="25">
        <defs>
          <path id="26" d="M57138.1,29.025 C57138.1,29.025,57112.2,29.025,57112.2,29.025 C57112.2,29.025,57112.2,22.525,57112.2,22.525 C57112.2,22.525,57138.1,22.525,57138.1,22.525 C57138.8,20.8588,57140,19.4336,57141.6,18.5004 C57144.2,16.9999,57147.4,16.9999,57150,18.5004 C57152.6,20.0009,57154.2,22.774,57154.2,25.775 C57154.2,28.7761,57152.6,31.5491,57150,33.0497 C57147.4,34.5502,57144.2,34.5502,57141.6,33.0497 C57140,32.1165,57138.8,30.6912,57138.1,29.025 z"/>
        </defs>
        <use style="fill:#000000;fill-opacity:1;fill-rule:evenodd;opacity:1;stroke:none;" xlink:href="#26"/>
      </g>
    </defs>
    <use xlink:href="#25"/>
    <defs>
      <title>Shape 285</title>
      <g id="27">
        <defs>
          <path id="28" d="M57373.2,89.7947 C57363.9,80.4209,57354.5,71.0471,57345.1,61.6732 C57346.6,60.1411,57348.2,58.609,57349.7,57.0768 C57359.1,66.4511,57368.5,75.8254,57377.8,85.1997 C57380.2,84.2243,57382.9,84.3912,57385.2,85.7004 C57387.8,87.2009,57389.4,89.974,57389.4,92.975 C57389.4,95.9761,57387.8,98.7491,57385.2,100.25 C57382.6,101.75,57379.4,101.75,57376.8,100.25 C57374.2,98.7491,57372.6,95.9761,57372.6,92.975 C57372.6,91.8663,57372.8,90.7886,57373.2,89.7947 z"/>
        </defs>
        <use style="fill:#000000;fill-opacity:1;fill-rule:evenodd;opacity:1;stroke:none;" xlink:href="#28"/>
      </g>
    </defs>
    <use xlink:href="#27"/>
    <defs>
      <title>Shape 284</title>
      <g id="29">
        <defs>
          <path id="30" d="M57406.9,62.625 C57406.9,62.625,57381,62.625,57381,62.625 C57381,62.625,57381,56.125,57381,56.125 C57381,56.125,57406.9,56.125,57406.9,56.125 C57407.6,54.4588,57408.8,53.0336,57410.4,52.1004 C57413,50.5999,57416.2,50.5999,57418.8,52.1004 C57421.4,53.6009,57423,56.374,57423,59.375 C57423,62.3761,57421.4,65.1491,57418.8,66.6497 C57416.2,68.1502,57413,68.1502,57410.4,66.6497 C57408.8,65.7165,57407.6,64.2912,57406.9,62.625 z"/>
        </defs>
        <use style="fill:#000000;fill-opacity:1;fill-rule:evenodd;opacity:1;stroke:none;" xlink:href="#30"/>
      </g>
    </defs>
    <use xlink:href="#29"/>
    <defs>
      <title>Shape 283</title>
      <g id="31">
        <defs>
          <path id="32" d="M57642.1,96.225 C57642.1,96.225,57616.2,96.225,57616.2,96.225 C57616.2,96.225,57582.6,96.225,57582.6,96.225 C57582.6,96.225,57582.6,89.725,57582.6,89.725 C57582.6,89.725,57616.2,89.725,57616.2,89.725 C57616.2,89.725,57642.1,89.725,57642.1,89.725 C57642.8,88.0588,57644,86.6336,57645.6,85.7004 C57648.2,84.1999,57651.4,84.1999,57654,85.7004 C57656.6,87.2009,57658.2,89.974,57658.2,92.975 C57658.2,95.9761,57656.6,98.7491,57654,100.25 C57651.4,101.75,57648.2,101.75,57645.6,100.25 C57644,99.3165,57642.8,97.8912,57642.1,96.225 z"/>
        </defs>
        <use style="fill:#000000;fill-opacity:1;fill-rule:evenodd;opacity:1;stroke:none;" xlink:href="#32"/>
      </g>
    </defs>
    <use xlink:href="#31"/>
    <defs>
      <title>Shape 282</title>
      <g id="33">
        <defs>
          <path id="34" d="M57176.2,33.5511 C57166.9,42.9252,57157.5,52.2993,57148.1,61.6734 C57146.6,60.1411,57145,58.6089,57143.5,57.0767 C57152.9,47.7034,57162.3,38.3302,57171.6,28.9569 C57171.2,27.9626,57171,26.8844,57171,25.775 C57171,22.774,57172.6,20.0009,57175.2,18.5004 C57177.8,16.9999,57181,16.9999,57183.6,18.5004 C57186.2,20.0009,57187.8,22.774,57187.8,25.775 C57187.8,28.7761,57186.2,31.5491,57183.6,33.0497 C57181.3,34.3585,57178.6,34.5257,57176.2,33.5511 z"/>
        </defs>
        <use style="fill:#000000;fill-opacity:1;fill-rule:evenodd;opacity:1;stroke:none;" xlink:href="#34"/>
      </g>
    </defs>
    <use xlink:href="#33"/>
    <defs>
      <title>Shape 281</title>
      <g id="35">
        <defs>
          <path id="36" d="M57306.1,-71.775 C57306.1,-71.775,57280.2,-71.775,57280.2,-71.775 C57280.2,-71.775,57246.6,-71.775,57246.6,-71.775 C57246.6,-71.775,57213,-71.775,57213,-71.775 C57213,-71.775,57180.8,-71.775,57180.8,-71.775 C57169.9,-60.8922,57159,-50.0094,57148.1,-39.1266 C57148.1,-39.1266,57147.2,-38.175,57147.2,-38.175 C57147.2,-38.175,57145.8,-38.175,57145.8,-38.175 C57145.8,-38.175,57112.2,-38.175,57112.2,-38.175 C57112.2,-38.175,57078.6,-38.175,57078.6,-38.175 C57078.6,-38.175,57045,-38.175,57045,-38.175 C57045,-38.175,57011.4,-38.175,57011.4,-38.175 C57011.4,-38.175,56977.8,-38.175,56977.8,-38.175 C56977.8,-38.175,56977.8,-44.675,56977.8,-44.675 C56977.8,-44.675,57011.4,-44.675,57011.4,-44.675 C57011.4,-44.675,57045,-44.675,57045,-44.675 C57045,-44.675,57078.6,-44.675,57078.6,-44.675 C57078.6,-44.675,57112.2,-44.675,57112.2,-44.675 C57112.2,-44.675,57144.5,-44.675,57144.5,-44.675 C57155.3,-55.5576,57166.2,-66.4403,57177.1,-77.3229 C57177.4,-77.6403,57177.7,-77.9576,57178.1,-78.275 C57178.1,-78.275,57179.4,-78.275,57179.4,-78.275 C57179.4,-78.275,57213,-78.275,57213,-78.275 C57213,-78.275,57246.6,-78.275,57246.6,-78.275 C57246.6,-78.275,57280.2,-78.275,57280.2,-78.275 C57280.2,-78.275,57306.1,-78.275,57306.1,-78.275 C57306.8,-79.9412,57308,-81.3664,57309.6,-82.2996 C57312.2,-83.8001,57315.4,-83.8001,57318,-82.2996 C57320.6,-80.7991,57322.2,-78.026,57322.2,-75.025 C57322.2,-72.0239,57320.6,-69.2509,57318,-67.7503 C57315.4,-66.2498,57312.2,-66.2498,57309.6,-67.7503 C57308,-68.6835,57306.8,-70.1088,57306.1,-71.775 z"/>
        </defs>
        <use style="fill:#000000;fill-opacity:1;fill-rule:evenodd;opacity:1;stroke:none;" xlink:href="#36"/>
      </g>
    </defs>
    <use xlink:href="#35"/>
    <defs>
      <title>Shape 280</title>
      <g id="37">
        <defs>
          <path id="38" d="M57406.8,-78.2064 C57397.8,-87.2626,57388.7,-96.3188,57379.7,-105.375 C57379.7,-105.375,57347.4,-105.375,57347.4,-105.375 C57347.4,-105.375,57315.2,-105.375,57315.2,-105.375 C57304.3,-94.4922,57293.4,-83.6094,57282.5,-72.7266 C57281,-74.2589,57279.4,-75.7911,57277.9,-77.3233 C57289.1,-88.5232,57300.3,-99.7231,57311.5,-110.923 C57311.8,-111.24,57312.1,-111.558,57312.5,-111.875 C57312.5,-111.875,57313.8,-111.875,57313.8,-111.875 C57313.8,-111.875,57347.4,-111.875,57347.4,-111.875 C57347.4,-111.875,57381,-111.875,57381,-111.875 C57381,-111.875,57382.4,-111.875,57382.4,-111.875 C57382.4,-111.875,57383.3,-110.923,57383.3,-110.923 C57392.7,-101.549,57402.1,-92.1746,57411.4,-82.8003 C57413.8,-83.7757,57416.5,-83.6088,57418.8,-82.2996 C57421.4,-80.7991,57423,-78.026,57423,-75.025 C57423,-72.0239,57421.4,-69.2509,57418.8,-67.7503 C57416.2,-66.2498,57413,-66.2498,57410.4,-67.7503 C57407.8,-69.2509,57406.2,-72.0239,57406.2,-75.025 C57406.2,-76.1342,57406.4,-77.2122,57406.8,-78.2064 z"/>
        </defs>
        <use style="fill:#000000;fill-opacity:1;fill-rule:evenodd;opacity:1;stroke:none;" xlink:href="#38"/>
      </g>
    </defs>
    <use xlink:href="#37"/>
    <defs>
      <title>Shape 279</title>
      <g id="39">
        <defs>
          <path id="40" d="M57205.3,-38.175 C57205.3,-38.175,57179.4,-38.175,57179.4,-38.175 C57179.4,-38.175,57145.8,-38.175,57145.8,-38.175 C57145.8,-38.175,57145.8,-44.675,57145.8,-44.675 C57145.8,-44.675,57179.4,-44.675,57179.4,-44.675 C57179.4,-44.675,57205.3,-44.675,57205.3,-44.675 C57206,-46.3412,57207.2,-47.7664,57208.8,-48.6996 C57211.4,-50.2001,57214.6,-50.2001,57217.2,-48.6996 C57219.8,-47.1991,57221.4,-44.426,57221.4,-41.425 C57221.4,-38.4239,57219.8,-35.6509,57217.2,-34.1503 C57214.6,-32.6498,57211.4,-32.6498,57208.8,-34.1503 C57207.2,-35.0835,57206,-36.5088,57205.3,-38.175 z"/>
        </defs>
        <use style="fill:#000000;fill-opacity:1;fill-rule:evenodd;opacity:1;stroke:none;" xlink:href="#40"/>
      </g>
    </defs>
    <use xlink:href="#39"/>
    <defs>
      <title>Shape 278</title>
      <g id="41">
        <defs>
          <path id="42" d="M57306.1,-38.175 C57306.1,-38.175,57280.2,-38.175,57280.2,-38.175 C57280.2,-38.175,57246.6,-38.175,57246.6,-38.175 C57246.6,-38.175,57245.3,-38.175,57245.3,-38.175 C57244.9,-38.4923,57244.6,-38.8097,57244.3,-39.127 C57233.1,-50.3269,57221.9,-61.5268,57210.7,-72.7266 C57212.2,-74.2589,57213.8,-75.7911,57215.3,-77.3233 C57226.2,-66.4405,57237.1,-55.5577,57248,-44.675 C57248,-44.675,57280.2,-44.675,57280.2,-44.675 C57280.2,-44.675,57306.1,-44.675,57306.1,-44.675 C57306.8,-46.3412,57308,-47.7664,57309.6,-48.6996 C57312.2,-50.2001,57315.4,-50.2001,57318,-48.6996 C57320.6,-47.1991,57322.2,-44.426,57322.2,-41.425 C57322.2,-38.4239,57320.6,-35.6509,57318,-34.1503 C57315.4,-32.6498,57312.2,-32.6498,57309.6,-34.1503 C57308,-35.0835,57306.8,-36.5088,57306.1,-38.175 z"/>
        </defs>
        <use style="fill:#000000;fill-opacity:1;fill-rule:evenodd;opacity:1;stroke:none;" xlink:href="#42"/>
      </g>
    </defs>
    <use xlink:href="#41"/>
    <defs>
      <title>Shape 277</title>
      <g id="43">
        <defs>
          <path id="44" d="M57642.1,163.425 C57633.4,163.425,57624.8,163.425,57616.2,163.425 C57616.2,163.425,57614.9,163.425,57614.9,163.425 C57614.5,163.108,57614.2,162.79,57613.9,162.473 C57603,151.59,57592.1,140.708,57581.3,129.825 C57581.3,129.825,57549,129.825,57549,129.825 C57549,129.825,57515.4,129.825,57515.4,129.825 C57515.4,129.825,57481.8,129.825,57481.8,129.825 C57481.8,129.825,57448.2,129.825,57448.2,129.825 C57448.2,129.825,57414.6,129.825,57414.6,129.825 C57414.6,129.825,57381,129.825,57381,129.825 C57381,129.825,57347.4,129.825,57347.4,129.825 C57347.4,129.825,57346.1,129.825,57346.1,129.825 C57345.7,129.508,57345.4,129.19,57345.1,128.873 C57334.2,117.99,57323.3,107.108,57312.5,96.225 C57312.5,96.225,57280.2,96.225,57280.2,96.225 C57280.2,96.225,57246.6,96.225,57246.6,96.225 C57246.6,96.225,57213,96.225,57213,96.225 C57213,96.225,57179.4,96.225,57179.4,96.225 C57179.4,96.225,57145.8,96.225,57145.8,96.225 C57145.8,96.225,57144.5,96.225,57144.5,96.225 C57144.1,95.9077,57143.8,95.5904,57143.5,95.273 C57132.6,84.3904,57121.7,73.5077,57110.9,62.625 C57110.9,62.625,57078.6,62.625,57078.6,62.625 C57078.6,62.625,57045,62.625,57045,62.625 C57045,62.625,57011.4,62.625,57011.4,62.625 C57011.4,62.625,56977.8,62.625,56977.8,62.625 C56977.8,62.625,56977.8,56.125,56977.8,56.125 C56977.8,56.125,57011.4,56.125,57011.4,56.125 C57011.4,56.125,57045,56.125,57045,56.125 C57045,56.125,57078.6,56.125,57078.6,56.125 C57078.6,56.125,57112.2,56.125,57112.2,56.125 C57112.2,56.125,57113.6,56.125,57113.6,56.125 C57113.6,56.125,57114.5,57.0767,57114.5,57.0767 C57125.4,67.9595,57136.3,78.8423,57147.2,89.725 C57147.2,89.725,57179.4,89.725,57179.4,89.725 C57179.4,89.725,57213,89.725,57213,89.725 C57213,89.725,57246.6,89.725,57246.6,89.725 C57246.6,89.725,57280.2,89.725,57280.2,89.725 C57280.2,89.725,57313.8,89.725,57313.8,89.725 C57313.8,89.725,57315.2,89.725,57315.2,89.725 C57315.2,89.725,57316.1,90.6767,57316.1,90.6767 C57327,101.559,57337.9,112.442,57348.8,123.325 C57348.8,123.325,57381,123.325,57381,123.325 C57381,123.325,57414.6,123.325,57414.6,123.325 C57414.6,123.325,57448.2,123.325,57448.2,123.325 C57448.2,123.325,57481.8,123.325,57481.8,123.325 C57481.8,123.325,57515.4,123.325,57515.4,123.325 C57515.4,123.325,57549,123.325,57549,123.325 C57549,123.325,57582.6,123.325,57582.6,123.325 C57582.6,123.325,57584,123.325,57584,123.325 C57584,123.325,57584.9,124.277,57584.9,124.277 C57595.8,135.16,57606.7,146.042,57617.6,156.925 C57625.7,156.925,57633.9,156.925,57642.1,156.925 C57642.8,155.259,57644,153.834,57645.6,152.9 C57648.2,151.4,57651.4,151.4,57654,152.9 C57656.6,154.401,57658.2,157.174,57658.2,160.175 C57658.2,163.176,57656.6,165.949,57654,167.45 C57651.4,168.95,57648.2,168.95,57645.6,167.45 C57644,166.517,57642.8,165.091,57642.1,163.425 z"/>
        </defs>
        <use style="fill:#000000;fill-opacity:1;fill-rule:evenodd;opacity:1;stroke:none;" xlink:href="#44"/>
      </g>
    </defs>
    <use xlink:href="#43"/>
    <defs>
      <title>Shape 276</title>
      <g id="45">
        <defs>
          <path id="46" d="M57339.7,96.225 C57339.7,96.225,57313.8,96.225,57313.8,96.225 C57313.8,96.225,57313.8,89.725,57313.8,89.725 C57313.8,89.725,57339.7,89.725,57339.7,89.725 C57340.4,88.0588,57341.6,86.6336,57343.2,85.7004 C57345.8,84.1999,57349,84.1999,57351.6,85.7004 C57354.2,87.2009,57355.8,89.974,57355.8,92.975 C57355.8,95.9761,57354.2,98.7491,57351.6,100.25 C57349,101.75,57345.8,101.75,57343.2,100.25 C57341.6,99.3165,57340.4,97.8912,57339.7,96.225 z"/>
        </defs>
        <use style="fill:#000000;fill-opacity:1;fill-rule:evenodd;opacity:1;stroke:none;" xlink:href="#46"/>
      </g>
    </defs>
    <use xlink:href="#45"/>
    <defs>
      <title>Shape 275</title>
      <g id="47">
        <defs>
          <path id="48" d="M57205.3,-105.375 C57205.3,-105.375,57180.8,-105.375,57180.8,-105.375 C57169.9,-94.4922,57159,-83.6094,57148.1,-72.7266 C57148.1,-72.7266,57147.2,-71.775,57147.2,-71.775 C57147.2,-71.775,57145.8,-71.775,57145.8,-71.775 C57145.8,-71.775,57112.2,-71.775,57112.2,-71.775 C57112.2,-71.775,57078.6,-71.775,57078.6,-71.775 C57078.6,-71.775,57045,-71.775,57045,-71.775 C57045,-71.775,57011.4,-71.775,57011.4,-71.775 C57011.4,-71.775,56977.8,-71.775,56977.8,-71.775 C56977.8,-71.775,56977.8,-78.275,56977.8,-78.275 C56977.8,-78.275,57011.4,-78.275,57011.4,-78.275 C57011.4,-78.275,57045,-78.275,57045,-78.275 C57045,-78.275,57078.6,-78.275,57078.6,-78.275 C57078.6,-78.275,57112.2,-78.275,57112.2,-78.275 C57112.2,-78.275,57144.5,-78.275,57144.5,-78.275 C57155.3,-89.1576,57166.2,-100.04,57177.1,-110.923 C57177.4,-111.24,57177.7,-111.558,57178.1,-111.875 C57178.1,-111.875,57179.4,-111.875,57179.4,-111.875 C57179.4,-111.875,57205.3,-111.875,57205.3,-111.875 C57206,-113.541,57207.2,-114.966,57208.8,-115.9 C57211.4,-117.4,57214.6,-117.4,57217.2,-115.9 C57219.8,-114.399,57221.4,-111.626,57221.4,-108.625 C57221.4,-105.624,57219.8,-102.851,57217.2,-101.35 C57214.6,-99.8498,57211.4,-99.8498,57208.8,-101.35 C57207.2,-102.283,57206,-103.709,57205.3,-105.375 z"/>
        </defs>
        <use style="fill:#000000;fill-opacity:1;fill-rule:evenodd;opacity:1;stroke:none;" xlink:href="#48"/>
      </g>
    </defs>
    <use xlink:href="#47"/>
    <defs>
      <title>Shape 274</title>
      <g id="49">
        <defs>
          <path id="50" d="M57642.1,197.025 C57633.4,197.025,57624.8,197.025,57616.2,197.025 C57616.2,197.025,57614.9,197.025,57614.9,197.025 C57614.5,196.708,57614.2,196.39,57613.9,196.073 C57603,185.19,57592.1,174.308,57581.3,163.425 C57570.5,163.425,57559.8,163.425,57549,163.425 C57537.8,163.425,57526.6,163.425,57515.4,163.425 C57504.2,163.425,57493,163.425,57481.8,163.425 C57470.6,163.425,57459.4,163.425,57448.2,163.425 C57437,163.425,57425.8,163.425,57414.6,163.425 C57403.4,163.425,57392.2,163.425,57381,163.425 C57369.8,163.425,57358.6,163.425,57347.4,163.425 C57347.4,163.425,57346.1,163.425,57346.1,163.425 C57345.7,163.108,57345.4,162.79,57345.1,162.473 C57334.2,151.59,57323.3,140.708,57312.5,129.825 C57312.5,129.825,57280.2,129.825,57280.2,129.825 C57280.2,129.825,57246.6,129.825,57246.6,129.825 C57246.6,129.825,57213,129.825,57213,129.825 C57213,129.825,57179.4,129.825,57179.4,129.825 C57179.4,129.825,57145.8,129.825,57145.8,129.825 C57145.8,129.825,57144.5,129.825,57144.5,129.825 C57144.1,129.508,57143.8,129.19,57143.5,128.873 C57132.6,117.99,57121.7,107.108,57110.9,96.225 C57110.9,96.225,57078.6,96.225,57078.6,96.225 C57078.6,96.225,57045,96.225,57045,96.225 C57045,96.225,57011.4,96.225,57011.4,96.225 C57011.4,96.225,56977.8,96.225,56977.8,96.225 C56977.8,96.225,56977.8,89.725,56977.8,89.725 C56977.8,89.725,57011.4,89.725,57011.4,89.725 C57011.4,89.725,57045,89.725,57045,89.725 C57045,89.725,57078.6,89.725,57078.6,89.725 C57078.6,89.725,57112.2,89.725,57112.2,89.725 C57112.2,89.725,57113.6,89.725,57113.6,89.725 C57113.6,89.725,57114.5,90.6767,57114.5,90.6767 C57125.4,101.559,57136.3,112.442,57147.2,123.325 C57147.2,123.325,57179.4,123.325,57179.4,123.325 C57179.4,123.325,57213,123.325,57213,123.325 C57213,123.325,57246.6,123.325,57246.6,123.325 C57246.6,123.325,57280.2,123.325,57280.2,123.325 C57280.2,123.325,57313.8,123.325,57313.8,123.325 C57313.8,123.325,57315.2,123.325,57315.2,123.325 C57315.2,123.325,57316.1,124.277,57316.1,124.277 C57327,135.159,57337.9,146.042,57348.8,156.925 C57359.5,156.925,57370.3,156.925,57381,156.925 C57392.2,156.925,57403.4,156.925,57414.6,156.925 C57425.8,156.925,57437,156.925,57448.2,156.925 C57459.4,156.925,57470.6,156.925,57481.8,156.925 C57493,156.925,57504.2,156.925,57515.4,156.925 C57526.6,156.925,57537.8,156.925,57549,156.925 C57560.2,156.925,57571.4,156.925,57582.6,156.925 C57582.6,156.925,57584,156.925,57584,156.925 C57584,156.925,57584.9,157.877,57584.9,157.877 C57595.8,168.76,57606.7,179.642,57617.6,190.525 C57625.7,190.525,57633.9,190.525,57642.1,190.525 C57642.8,188.859,57644,187.434,57645.6,186.5 C57648.2,185,57651.4,185,57654,186.5 C57656.6,188.001,57658.2,190.774,57658.2,193.775 C57658.2,196.776,57656.6,199.549,57654,201.05 C57651.4,202.55,57648.2,202.55,57645.6,201.05 C57644,200.117,57642.8,198.691,57642.1,197.025 z"/>
        </defs>
        <use style="fill:#000000;fill-opacity:1;fill-rule:evenodd;opacity:1;stroke:none;" xlink:href="#50"/>
      </g>
    </defs>
    <use xlink:href="#49"/>
    <defs>
      <title>Shape 273</title>
      <g id="51">
        <defs>
          <path id="52" d="M57238.8,156.993 C57229.5,147.62,57220.1,138.247,57210.7,128.873 C57212.2,127.341,57213.8,125.809,57215.3,124.277 C57224.7,133.651,57234.1,143.025,57243.4,152.4 C57245.8,151.424,57248.5,151.591,57250.8,152.9 C57253.4,154.401,57255,157.174,57255,160.175 C57255,163.176,57253.4,165.949,57250.8,167.45 C57248.2,168.95,57245,168.95,57242.4,167.45 C57239.8,165.949,57238.2,163.176,57238.2,160.175 C57238.2,159.066,57238.4,157.988,57238.8,156.993 z"/>
        </defs>
        <use style="fill:#000000;fill-opacity:1;fill-rule:evenodd;opacity:1;stroke:none;" xlink:href="#52"/>
      </g>
    </defs>
    <use xlink:href="#51"/>
    <defs>
      <title>Shape 272</title>
      <g id="53">
        <defs>
          <path id="54" d="M57272.4,156.995 C57263.1,147.621,57253.7,138.247,57244.3,128.873 C57245.8,127.341,57247.4,125.809,57248.9,124.277 C57258.3,133.651,57267.7,143.025,57277,152.4 C57279.4,151.424,57282.1,151.591,57284.4,152.9 C57287,154.401,57288.6,157.174,57288.6,160.175 C57288.6,163.176,57287,165.949,57284.4,167.45 C57281.8,168.95,57278.6,168.95,57276,167.45 C57273.4,165.949,57271.8,163.176,57271.8,160.175 C57271.8,159.066,57272,157.989,57272.4,156.995 z"/>
        </defs>
        <use style="fill:#000000;fill-opacity:1;fill-rule:evenodd;opacity:1;stroke:none;" xlink:href="#54"/>
      </g>
    </defs>
    <use xlink:href="#53"/>
    <defs>
      <title>Shape 271</title>
      <g id="55">
        <defs>
          <path id="56" d="M57306,156.996 C57306,156.996,57277.9,128.873,57277.9,128.873 C57279.4,127.341,57281,125.809,57282.5,124.277 C57291.9,133.651,57301.3,143.025,57310.6,152.4 C57313,151.424,57315.7,151.591,57318,152.9 C57320.6,154.401,57322.2,157.174,57322.2,160.175 C57322.2,163.176,57320.6,165.949,57318,167.45 C57315.4,168.95,57312.2,168.95,57309.6,167.45 C57307,165.949,57305.4,163.176,57305.4,160.175 C57305.4,159.067,57305.6,157.989,57306,156.996 z"/>
        </defs>
        <use style="fill:#000000;fill-opacity:1;fill-rule:evenodd;opacity:1;stroke:none;" xlink:href="#56"/>
      </g>
    </defs>
    <use xlink:href="#55"/>
    <defs>
      <title>Shape 270</title>
      <g id="57">
        <defs>
          <path id="58" d="M57910.9,-105.375 C57910.9,-105.375,57885,-105.375,57885,-105.375 C57885,-105.375,57851.4,-105.375,57851.4,-105.375 C57851.4,-105.375,57817.8,-105.375,57817.8,-105.375 C57817.8,-105.375,57784.2,-105.375,57784.2,-105.375 C57784.2,-105.375,57750.6,-105.375,57750.6,-105.375 C57750.6,-105.375,57717,-105.375,57717,-105.375 C57717,-105.375,57683.4,-105.375,57683.4,-105.375 C57683.4,-105.375,57649.8,-105.375,57649.8,-105.375 C57649.8,-105.375,57616.2,-105.375,57616.2,-105.375 C57616.2,-105.375,57582.6,-105.375,57582.6,-105.375 C57582.6,-105.375,57549,-105.375,57549,-105.375 C57549,-105.375,57515.4,-105.375,57515.4,-105.375 C57515.4,-105.375,57481.8,-105.375,57481.8,-105.375 C57481.8,-105.375,57448.2,-105.375,57448.2,-105.375 C57448.2,-105.375,57414.6,-105.375,57414.6,-105.375 C57414.6,-105.375,57413.3,-105.375,57413.3,-105.375 C57412.9,-105.692,57412.6,-106.01,57412.3,-106.327 C57401.4,-117.21,57390.5,-128.092,57379.7,-138.975 C57368.9,-138.975,57358.2,-138.975,57347.4,-138.975 C57336.2,-138.975,57325,-138.975,57313.8,-138.975 C57302.6,-138.975,57291.4,-138.975,57280.2,-138.975 C57269,-138.975,57257.8,-138.975,57246.6,-138.975 C57235.4,-138.975,57224.2,-138.975,57213,-138.975 C57202.3,-138.975,57191.5,-138.975,57180.8,-138.975 C57169.9,-128.092,57159,-117.209,57148.1,-106.327 C57148.1,-106.327,57147.2,-105.375,57147.2,-105.375 C57147.2,-105.375,57145.8,-105.375,57145.8,-105.375 C57145.8,-105.375,57112.2,-105.375,57112.2,-105.375 C57112.2,-105.375,57078.6,-105.375,57078.6,-105.375 C57078.6,-105.375,57045,-105.375,57045,-105.375 C57045,-105.375,57011.4,-105.375,57011.4,-105.375 C57011.4,-105.375,56977.8,-105.375,56977.8,-105.375 C56977.8,-105.375,56977.8,-111.875,56977.8,-111.875 C56977.8,-111.875,57011.4,-111.875,57011.4,-111.875 C57011.4,-111.875,57045,-111.875,57045,-111.875 C57045,-111.875,57078.6,-111.875,57078.6,-111.875 C57078.6,-111.875,57112.2,-111.875,57112.2,-111.875 C57112.2,-111.875,57144.5,-111.875,57144.5,-111.875 C57155.3,-122.758,57166.2,-133.64,57177.1,-144.523 C57177.4,-144.84,57177.7,-145.158,57178.1,-145.475 C57178.1,-145.475,57179.4,-145.475,57179.4,-145.475 C57190.6,-145.475,57201.8,-145.475,57213,-145.475 C57224.2,-145.475,57235.4,-145.475,57246.6,-145.475 C57257.8,-145.475,57269,-145.475,57280.2,-145.475 C57291.4,-145.475,57302.6,-145.475,57313.8,-145.475 C57325,-145.475,57336.2,-145.475,57347.4,-145.475 C57358.6,-145.475,57369.8,-145.475,57381,-145.475 C57381,-145.475,57382.4,-145.475,57382.4,-145.475 C57382.4,-145.475,57383.3,-144.523,57383.3,-144.523 C57394.2,-133.641,57405.1,-122.758,57416,-111.875 C57416,-111.875,57448.2,-111.875,57448.2,-111.875 C57448.2,-111.875,57481.8,-111.875,57481.8,-111.875 C57481.8,-111.875,57515.4,-111.875,57515.4,-111.875 C57515.4,-111.875,57549,-111.875,57549,-111.875 C57549,-111.875,57582.6,-111.875,57582.6,-111.875 C57582.6,-111.875,57616.2,-111.875,57616.2,-111.875 C57616.2,-111.875,57649.8,-111.875,57649.8,-111.875 C57649.8,-111.875,57683.4,-111.875,57683.4,-111.875 C57683.4,-111.875,57717,-111.875,57717,-111.875 C57717,-111.875,57750.6,-111.875,57750.6,-111.875 C57750.6,-111.875,57784.2,-111.875,57784.2,-111.875 C57784.2,-111.875,57817.8,-111.875,57817.8,-111.875 C57817.8,-111.875,57851.4,-111.875,57851.4,-111.875 C57851.4,-111.875,57885,-111.875,57885,-111.875 C57885,-111.875,57910.9,-111.875,57910.9,-111.875 C57911.6,-113.541,57912.8,-114.966,57914.4,-115.9 C57917,-117.4,57920.2,-117.4,57922.8,-115.9 C57925.4,-114.399,57927,-111.626,57927,-108.625 C57927,-105.624,57925.4,-102.851,57922.8,-101.35 C57920.2,-99.8498,57917,-99.8498,57914.4,-101.35 C57912.8,-102.283,57911.6,-103.709,57910.9,-105.375 z"/>
        </defs>
        <use style="fill:#000000;fill-opacity:1;fill-rule:evenodd;opacity:1;stroke:none;" xlink:href="#58"/>
      </g>
    </defs>
    <use xlink:href="#57"/>
    <defs>
      <title>Shape 269</title>
      <g id="59">
        <defs>
          <path id="60" d="M57272.4,-111.805 C57263.1,-121.179,57253.7,-130.553,57244.3,-139.927 C57245.8,-141.459,57247.4,-142.991,57248.9,-144.523 C57258.3,-135.149,57267.7,-125.775,57277,-116.4 C57279.4,-117.376,57282.1,-117.209,57284.4,-115.9 C57287,-114.399,57288.6,-111.626,57288.6,-108.625 C57288.6,-105.624,57287,-102.851,57284.4,-101.35 C57281.8,-99.8498,57278.6,-99.8498,57276,-101.35 C57273.4,-102.851,57271.8,-105.624,57271.8,-108.625 C57271.8,-109.734,57272,-110.811,57272.4,-111.805 z"/>
        </defs>
        <use style="fill:#000000;fill-opacity:1;fill-rule:evenodd;opacity:1;stroke:none;" xlink:href="#60"/>
      </g>
    </defs>
    <use xlink:href="#59"/>
    <defs>
      <title>Shape 268</title>
      <g id="61">
        <defs>
          <path id="62" d="M57642.1,-206.175 C57633.4,-206.175,57624.8,-206.175,57616.2,-206.175 C57605,-206.175,57593.8,-206.175,57582.6,-206.175 C57571.4,-206.175,57560.2,-206.175,57549,-206.175 C57537.8,-206.175,57526.6,-206.175,57515.4,-206.175 C57504.7,-206.175,57493.9,-206.175,57483.2,-206.175 C57472.3,-195.292,57461.4,-184.409,57450.5,-173.527 C57450.5,-173.527,57449.6,-172.575,57449.6,-172.575 C57449.6,-172.575,57448.2,-172.575,57448.2,-172.575 C57437,-172.575,57425.8,-172.575,57414.6,-172.575 C57403.9,-172.575,57393.1,-172.575,57382.4,-172.575 C57371.5,-161.692,57360.6,-150.81,57349.7,-139.927 C57348.2,-141.459,57346.6,-142.991,57345.1,-144.523 C57356.3,-155.723,57367.5,-166.923,57378.7,-178.123 C57379,-178.44,57379.3,-178.758,57379.7,-179.075 C57379.7,-179.075,57381,-179.075,57381,-179.075 C57392.2,-179.075,57403.4,-179.075,57414.6,-179.075 C57425.4,-179.075,57436.1,-179.075,57446.9,-179.075 C57457.7,-189.958,57468.6,-200.84,57479.5,-211.723 C57479.8,-212.04,57480.1,-212.358,57480.5,-212.675 C57480.5,-212.675,57481.8,-212.675,57481.8,-212.675 C57493,-212.675,57504.2,-212.675,57515.4,-212.675 C57526.6,-212.675,57537.8,-212.675,57549,-212.675 C57560.2,-212.675,57571.4,-212.675,57582.6,-212.675 C57593.8,-212.675,57605,-212.675,57616.2,-212.675 C57624.8,-212.675,57633.4,-212.675,57642.1,-212.675 C57642.8,-214.341,57644,-215.766,57645.6,-216.7 C57648.2,-218.2,57651.4,-218.2,57654,-216.7 C57656.6,-215.199,57658.2,-212.426,57658.2,-209.425 C57658.2,-206.424,57656.6,-203.651,57654,-202.15 C57651.4,-200.65,57648.2,-200.65,57645.6,-202.15 C57644,-203.083,57642.8,-204.509,57642.1,-206.175 z"/>
        </defs>
        <use style="fill:#000000;fill-opacity:1;fill-rule:evenodd;opacity:1;stroke:none;" xlink:href="#62"/>
      </g>
    </defs>
    <use xlink:href="#61"/>
    <defs>
      <title>Shape 267</title>
      <g id="63">
        <defs>
          <path id="64" d="M57877.3,-172.575 C57868.6,-172.575,57860,-172.575,57851.4,-172.575 C57840.7,-172.575,57829.9,-172.575,57819.2,-172.575 C57808.3,-161.692,57797.4,-150.809,57786.5,-139.927 C57775.3,-128.727,57764.1,-117.527,57752.9,-106.327 C57751.4,-107.859,57749.8,-109.391,57748.3,-110.923 C57759.5,-122.123,57770.7,-133.323,57781.9,-144.523 C57793.1,-155.723,57804.3,-166.923,57815.5,-178.123 C57815.8,-178.44,57816.1,-178.758,57816.5,-179.075 C57816.5,-179.075,57817.8,-179.075,57817.8,-179.075 C57829,-179.075,57840.2,-179.075,57851.4,-179.075 C57860,-179.075,57868.6,-179.075,57877.3,-179.075 C57878,-180.741,57879.2,-182.166,57880.8,-183.1 C57883.4,-184.6,57886.6,-184.6,57889.2,-183.1 C57891.8,-181.599,57893.4,-178.826,57893.4,-175.825 C57893.4,-172.824,57891.8,-170.051,57889.2,-168.55 C57886.6,-167.05,57883.4,-167.05,57880.8,-168.55 C57879.2,-169.484,57878,-170.909,57877.3,-172.575 z"/>
        </defs>
        <use style="fill:#000000;fill-opacity:1;fill-rule:evenodd;opacity:1;stroke:none;" xlink:href="#64"/>
      </g>
    </defs>
    <use xlink:href="#63"/>
    <defs>
      <title>Shape 266</title>
      <g id="65">
        <defs>
          <path id="66" d="M57814.6,-134.45 C57805.3,-125.075,57795.9,-115.701,57786.5,-106.327 C57785,-107.859,57783.4,-109.391,57781.9,-110.923 C57781.9,-110.923,57810,-139.046,57810,-139.046 C57809.6,-140.039,57809.4,-141.117,57809.4,-142.225 C57809.4,-145.226,57811,-147.999,57813.6,-149.5 C57816.2,-151,57819.4,-151,57822,-149.5 C57824.6,-147.999,57826.2,-145.226,57826.2,-142.225 C57826.2,-139.224,57824.6,-136.451,57822,-134.95 C57819.7,-133.641,57817,-133.474,57814.6,-134.45 z"/>
        </defs>
        <use style="fill:#000000;fill-opacity:1;fill-rule:evenodd;opacity:1;stroke:none;" xlink:href="#66"/>
      </g>
    </defs>
    <use xlink:href="#65"/>
    <defs>
      <title>Shape 265</title>
      <g id="67">
        <defs>
          <path id="68" d="M57474.1,-138.975 C57465.4,-138.975,57456.8,-138.975,57448.2,-138.975 C57437,-138.975,57425.8,-138.975,57414.6,-138.975 C57403.4,-138.975,57392.2,-138.975,57381,-138.975 C57381,-138.975,57381,-145.475,57381,-145.475 C57392.2,-145.475,57403.4,-145.475,57414.6,-145.475 C57425.8,-145.475,57437,-145.475,57448.2,-145.475 C57456.8,-145.475,57465.4,-145.475,57474.1,-145.475 C57474.8,-147.141,57476,-148.566,57477.6,-149.5 C57480.2,-151,57483.4,-151,57486,-149.5 C57488.6,-147.999,57490.2,-145.226,57490.2,-142.225 C57490.2,-139.224,57488.6,-136.451,57486,-134.95 C57483.4,-133.45,57480.2,-133.45,57477.6,-134.95 C57476,-135.883,57474.8,-137.309,57474.1,-138.975 z"/>
        </defs>
        <use style="fill:#000000;fill-opacity:1;fill-rule:evenodd;opacity:1;stroke:none;" xlink:href="#68"/>
      </g>
    </defs>
    <use xlink:href="#67"/>
    <defs>
      <title>Shape 264</title>
      <g id="69">
        <defs>
          <path id="70" d="M58011.7,-138.975 C58003,-138.975,57994.4,-138.975,57985.8,-138.975 C57974.6,-138.975,57963.4,-138.975,57952.2,-138.975 C57941,-138.975,57929.8,-138.975,57918.6,-138.975 C57907.4,-138.975,57896.2,-138.975,57885,-138.975 C57874.3,-138.975,57863.5,-138.975,57852.8,-138.975 C57841.9,-128.092,57831,-117.209,57820.1,-106.327 C57818.6,-107.859,57817,-109.391,57815.5,-110.923 C57826.7,-122.123,57837.9,-133.323,57849.1,-144.523 C57849.4,-144.84,57849.7,-145.158,57850.1,-145.475 C57850.1,-145.475,57851.4,-145.475,57851.4,-145.475 C57862.6,-145.475,57873.8,-145.475,57885,-145.475 C57896.2,-145.475,57907.4,-145.475,57918.6,-145.475 C57929.8,-145.475,57941,-145.475,57952.2,-145.475 C57963.4,-145.475,57974.6,-145.475,57985.8,-145.475 C57994.4,-145.475,58003,-145.475,58011.7,-145.475 C58012.4,-147.141,58013.6,-148.566,58015.2,-149.5 C58017.8,-151,58021,-151,58023.6,-149.5 C58026.2,-147.999,58027.8,-145.226,58027.8,-142.225 C58027.8,-139.224,58026.2,-136.451,58023.6,-134.95 C58021,-133.45,58017.8,-133.45,58015.2,-134.95 C58013.6,-135.883,58012.4,-137.309,58011.7,-138.975 z"/>
        </defs>
        <use style="fill:#000000;fill-opacity:1;fill-rule:evenodd;opacity:1;stroke:none;" xlink:href="#70"/>
      </g>
    </defs>
    <use xlink:href="#69"/>
    <defs>
      <title>Shape 263</title>
      <g id="71">
        <defs>
          <path id="72" d="M57574.9,-71.775 C57574.9,-71.775,57549,-71.775,57549,-71.775 C57549,-71.775,57547.7,-71.775,57547.7,-71.775 C57547.3,-72.0924,57547,-72.4097,57546.7,-72.7271 C57535.5,-83.927,57524.3,-95.1269,57513.1,-106.327 C57514.6,-107.859,57516.2,-109.391,57517.7,-110.923 C57528.6,-100.04,57539.5,-89.1577,57550.4,-78.275 C57558.5,-78.275,57566.7,-78.275,57574.9,-78.275 C57575.6,-79.9412,57576.8,-81.3664,57578.4,-82.2996 C57581,-83.8001,57584.2,-83.8001,57586.8,-82.2996 C57589.4,-80.7991,57591,-78.026,57591,-75.025 C57591,-72.0239,57589.4,-69.2509,57586.8,-67.7503 C57584.2,-66.2498,57581,-66.2498,57578.4,-67.7503 C57576.8,-68.6835,57575.6,-70.1088,57574.9,-71.775 z"/>
        </defs>
        <use style="fill:#000000;fill-opacity:1;fill-rule:evenodd;opacity:1;stroke:none;" xlink:href="#72"/>
      </g>
    </defs>
    <use xlink:href="#71"/>
    <defs>
      <title>Shape 262</title>
      <g id="73">
        <defs>
          <path id="74" d="M57138,156.996 C57129,147.939,57119.9,138.882,57110.9,129.825 C57110.9,129.825,57078.6,129.825,57078.6,129.825 C57078.6,129.825,57045,129.825,57045,129.825 C57045,129.825,57011.4,129.825,57011.4,129.825 C57011.4,129.825,56977.8,129.825,56977.8,129.825 C56977.8,129.825,56977.8,123.325,56977.8,123.325 C56977.8,123.325,57011.4,123.325,57011.4,123.325 C57011.4,123.325,57045,123.325,57045,123.325 C57045,123.325,57078.6,123.325,57078.6,123.325 C57078.6,123.325,57112.2,123.325,57112.2,123.325 C57112.2,123.325,57113.6,123.325,57113.6,123.325 C57113.6,123.325,57114.5,124.277,57114.5,124.277 C57123.9,133.651,57133.3,143.025,57142.6,152.4 C57145,151.424,57147.7,151.591,57150,152.9 C57152.6,154.401,57154.2,157.174,57154.2,160.175 C57154.2,163.176,57152.6,165.949,57150,167.45 C57147.4,168.95,57144.2,168.95,57141.6,167.45 C57139,165.949,57137.4,163.176,57137.4,160.175 C57137.4,159.067,57137.6,157.99,57138,156.996 z"/>
        </defs>
        <use style="fill:#000000;fill-opacity:1;fill-rule:evenodd;opacity:1;stroke:none;" xlink:href="#74"/>
      </g>
    </defs>
    <use xlink:href="#73"/>
    <defs>
      <title>Shape 261</title>
      <g id="75">
        <defs>
          <path id="76" d="M57306.1,-172.575 C57297.4,-172.575,57288.8,-172.575,57280.2,-172.575 C57269,-172.575,57257.8,-172.575,57246.6,-172.575 C57235.4,-172.575,57224.2,-172.575,57213,-172.575 C57202.3,-172.575,57191.5,-172.575,57180.8,-172.575 C57169.9,-161.692,57159,-150.809,57148.1,-139.927 C57148.1,-139.927,57147.2,-138.975,57147.2,-138.975 C57147.2,-138.975,57145.8,-138.975,57145.8,-138.975 C57134.6,-138.975,57123.4,-138.975,57112.2,-138.975 C57101,-138.975,57089.8,-138.975,57078.6,-138.975 C57067.4,-138.975,57056.2,-138.975,57045,-138.975 C57033.8,-138.975,57022.6,-138.975,57011.4,-138.975 C57000.2,-138.975,56989,-138.975,56977.8,-138.975 C56977.8,-138.975,56977.8,-145.475,56977.8,-145.475 C56989,-145.475,57000.2,-145.475,57011.4,-145.475 C57022.6,-145.475,57033.8,-145.475,57045,-145.475 C57056.2,-145.475,57067.4,-145.475,57078.6,-145.475 C57089.8,-145.475,57101,-145.475,57112.2,-145.475 C57123,-145.475,57133.7,-145.475,57144.5,-145.475 C57155.3,-156.358,57166.2,-167.24,57177.1,-178.123 C57177.4,-178.44,57177.7,-178.758,57178.1,-179.075 C57178.1,-179.075,57179.4,-179.075,57179.4,-179.075 C57190.6,-179.075,57201.8,-179.075,57213,-179.075 C57224.2,-179.075,57235.4,-179.075,57246.6,-179.075 C57257.8,-179.075,57269,-179.075,57280.2,-179.075 C57288.8,-179.075,57297.4,-179.075,57306.1,-179.075 C57306.8,-180.741,57308,-182.166,57309.6,-183.1 C57312.2,-184.6,57315.4,-184.6,57318,-183.1 C57320.6,-181.599,57322.2,-178.826,57322.2,-175.825 C57322.2,-172.824,57320.6,-170.051,57318,-168.55 C57315.4,-167.05,57312.2,-167.05,57309.6,-168.55 C57308,-169.483,57306.8,-170.909,57306.1,-172.575 z"/>
        </defs>
        <use style="fill:#000000;fill-opacity:1;fill-rule:evenodd;opacity:1;stroke:none;" xlink:href="#76"/>
      </g>
    </defs>
    <use xlink:href="#75"/>
    <defs>
      <title>Shape 260</title>
      <g id="77">
        <defs>
          <path id="78" d="M57310.6,-268.85 C57301.3,-259.475,57291.9,-250.101,57282.5,-240.727 C57271.3,-229.527,57260.1,-218.327,57248.9,-207.127 C57237.7,-195.927,57226.5,-184.727,57215.3,-173.527 C57213.8,-175.059,57212.2,-176.591,57210.7,-178.123 C57221.9,-189.323,57233.1,-200.523,57244.3,-211.723 C57255.5,-222.923,57266.7,-234.123,57277.9,-245.323 C57287.3,-254.697,57296.7,-264.072,57306,-273.446 C57305.6,-274.439,57305.4,-275.517,57305.4,-276.625 C57305.4,-279.626,57307,-282.399,57309.6,-283.9 C57312.2,-285.4,57315.4,-285.4,57318,-283.9 C57320.6,-282.399,57322.2,-279.626,57322.2,-276.625 C57322.2,-273.624,57320.6,-270.851,57318,-269.35 C57315.7,-268.041,57313,-267.874,57310.6,-268.85 z"/>
        </defs>
        <use style="fill:#000000;fill-opacity:1;fill-rule:evenodd;opacity:1;stroke:none;" xlink:href="#78"/>
      </g>
    </defs>
    <use xlink:href="#77"/>
    <defs>
      <title>Shape 259</title>
      <g id="79">
        <defs>
          <path id="80" d="M57373.3,-273.375 C57365.1,-273.375,57356.9,-273.375,57348.8,-273.375 C57337.9,-262.492,57327,-251.609,57316.1,-240.727 C57304.9,-229.527,57293.7,-218.327,57282.5,-207.127 C57271.3,-195.927,57260.1,-184.727,57248.9,-173.527 C57247.4,-175.059,57245.8,-176.591,57244.3,-178.123 C57255.5,-189.323,57266.7,-200.523,57277.9,-211.723 C57289.1,-222.923,57300.3,-234.123,57311.5,-245.323 C57322.7,-256.523,57333.9,-267.723,57345.1,-278.923 C57345.4,-279.24,57345.7,-279.558,57346.1,-279.875 C57346.1,-279.875,57347.4,-279.875,57347.4,-279.875 C57356,-279.875,57364.6,-279.875,57373.3,-279.875 C57374,-281.541,57375.2,-282.966,57376.8,-283.9 C57379.4,-285.4,57382.6,-285.4,57385.2,-283.9 C57387.8,-282.399,57389.4,-279.626,57389.4,-276.625 C57389.4,-273.624,57387.8,-270.851,57385.2,-269.35 C57382.6,-267.85,57379.4,-267.85,57376.8,-269.35 C57375.2,-270.283,57374,-271.709,57373.3,-273.375 z"/>
        </defs>
        <use style="fill:#000000;fill-opacity:1;fill-rule:evenodd;opacity:1;stroke:none;" xlink:href="#80"/>
      </g>
    </defs>
    <use xlink:href="#79"/>
    <defs>
      <title>Shape 258</title>
      <g id="81">
        <defs>
          <path id="82" d="M57339.7,-206.175 C57331.5,-206.175,57323.3,-206.175,57315.2,-206.175 C57304.3,-195.292,57293.4,-184.409,57282.5,-173.527 C57281,-175.059,57279.4,-176.591,57277.9,-178.123 C57289.1,-189.323,57300.3,-200.523,57311.5,-211.723 C57311.8,-212.04,57312.1,-212.358,57312.5,-212.675 C57312.5,-212.675,57313.8,-212.675,57313.8,-212.675 C57322.4,-212.675,57331,-212.675,57339.7,-212.675 C57340.4,-214.341,57341.6,-215.766,57343.2,-216.7 C57345.8,-218.2,57349,-218.2,57351.6,-216.7 C57354.2,-215.199,57355.8,-212.426,57355.8,-209.425 C57355.8,-206.424,57354.2,-203.651,57351.6,-202.15 C57349,-200.65,57345.8,-200.65,57343.2,-202.15 C57341.6,-203.083,57340.4,-204.509,57339.7,-206.175 z"/>
        </defs>
        <use style="fill:#000000;fill-opacity:1;fill-rule:evenodd;opacity:1;stroke:none;" xlink:href="#82"/>
      </g>
    </defs>
    <use xlink:href="#81"/>
    <defs>
      <title>Shape 257</title>
      <g id="83">
        <defs>
          <path id="84" d="M57742.9,230.625 C57734.2,230.625,57725.6,230.625,57717,230.625 C57705.8,230.625,57694.6,230.625,57683.4,230.625 C57672.2,230.625,57661,230.625,57649.8,230.625 C57638.6,230.625,57627.4,230.625,57616.2,230.625 C57616.2,230.625,57614.9,230.625,57614.9,230.625 C57614.5,230.308,57614.2,229.99,57613.9,229.673 C57603,218.79,57592.1,207.908,57581.3,197.025 C57570.5,197.025,57559.8,197.025,57549,197.025 C57537.8,197.025,57526.6,197.025,57515.4,197.025 C57504.2,197.025,57493,197.025,57481.8,197.025 C57470.6,197.025,57459.4,197.025,57448.2,197.025 C57437,197.025,57425.8,197.025,57414.6,197.025 C57403.4,197.025,57392.2,197.025,57381,197.025 C57369.8,197.025,57358.6,197.025,57347.4,197.025 C57336.2,197.025,57325,197.025,57313.8,197.025 C57302.6,197.025,57291.4,197.025,57280.2,197.025 C57269,197.025,57257.8,197.025,57246.6,197.025 C57235.4,197.025,57224.2,197.025,57213,197.025 C57201.8,197.025,57190.6,197.025,57179.4,197.025 C57168.2,197.025,57157,197.025,57145.8,197.025 C57134.6,197.025,57123.4,197.025,57112.2,197.025 C57112.2,197.025,57110.9,197.025,57110.9,197.025 C57110.9,197.025,57109.9,196.073,57109.9,196.073 C57099,185.19,57088.1,174.308,57077.3,163.425 C57066.5,163.425,57055.8,163.425,57045,163.425 C57033.8,163.425,57022.6,163.425,57011.4,163.425 C57000.2,163.425,56989,163.425,56977.8,163.425 C56977.8,163.425,56977.8,156.925,56977.8,156.925 C56989,156.925,57000.2,156.925,57011.4,156.925 C57022.6,156.925,57033.8,156.925,57045,156.925 C57056.2,156.925,57067.4,156.925,57078.6,156.925 C57078.6,156.925,57080,156.925,57080,156.925 C57080,156.925,57080.9,157.877,57080.9,157.877 C57091.8,168.76,57102.7,179.642,57113.6,190.525 C57124.3,190.525,57135.1,190.525,57145.8,190.525 C57157,190.525,57168.2,190.525,57179.4,190.525 C57190.6,190.525,57201.8,190.525,57213,190.525 C57224.2,190.525,57235.4,190.525,57246.6,190.525 C57257.8,190.525,57269,190.525,57280.2,190.525 C57291.4,190.525,57302.6,190.525,57313.8,190.525 C57325,190.525,57336.2,190.525,57347.4,190.525 C57358.6,190.525,57369.8,190.525,57381,190.525 C57392.2,190.525,57403.4,190.525,57414.6,190.525 C57425.8,190.525,57437,190.525,57448.2,190.525 C57459.4,190.525,57470.6,190.525,57481.8,190.525 C57493,190.525,57504.2,190.525,57515.4,190.525 C57526.6,190.525,57537.8,190.525,57549,190.525 C57560.2,190.525,57571.4,190.525,57582.6,190.525 C57582.6,190.525,57584,190.525,57584,190.525 C57584,190.525,57584.9,191.477,57584.9,191.477 C57595.8,202.36,57606.7,213.242,57617.6,224.125 C57628.3,224.125,57639.1,224.125,57649.8,224.125 C57661,224.125,57672.2,224.125,57683.4,224.125 C57694.6,224.125,57705.8,224.125,57717,224.125 C57725.6,224.125,57734.2,224.125,57742.9,224.125 C57743.6,222.459,57744.8,221.034,57746.4,220.1 C57749,218.6,57752.2,218.6,57754.8,220.1 C57757.4,221.601,57759,224.374,57759,227.375 C57759,230.376,57757.4,233.149,57754.8,234.65 C57752.2,236.15,57749,236.15,57746.4,234.65 C57744.8,233.717,57743.6,232.291,57742.9,230.625 z"/>
        </defs>
        <use style="fill:#000000;fill-opacity:1;fill-rule:evenodd;opacity:1;stroke:none;" xlink:href="#84"/>
      </g>
    </defs>
    <use xlink:href="#83"/>
    <defs>
      <title>Shape 256</title>
      <g id="85">
        <defs>
          <path id="86" d="M57608.4,291.395 C57599.1,282.021,57589.7,272.647,57580.3,263.273 C57569.1,252.073,57557.9,240.873,57546.7,229.673 C57535.5,218.473,57524.3,207.273,57513.1,196.073 C57514.6,194.541,57516.2,193.009,57517.7,191.477 C57528.9,202.677,57540.1,213.877,57551.3,225.077 C57562.5,236.277,57573.7,247.477,57584.9,258.677 C57594.3,268.051,57603.7,277.425,57613,286.8 C57615.4,285.824,57618.1,285.991,57620.4,287.3 C57623,288.801,57624.6,291.574,57624.6,294.575 C57624.6,297.576,57623,300.349,57620.4,301.85 C57617.8,303.35,57614.6,303.35,57612,301.85 C57609.4,300.349,57607.8,297.576,57607.8,294.575 C57607.8,293.466,57608,292.389,57608.4,291.395 z"/>
        </defs>
        <use style="fill:#000000;fill-opacity:1;fill-rule:evenodd;opacity:1;stroke:none;" xlink:href="#86"/>
      </g>
    </defs>
    <use xlink:href="#85"/>
    <defs>
      <title>Shape 255</title>
      <g id="87">
        <defs>
          <path id="88" d="M57209.8,167.95 C57200.5,177.325,57191.1,186.699,57181.7,196.073 C57180.2,194.541,57178.6,193.009,57177.1,191.477 C57186.5,182.103,57195.9,172.729,57205.2,163.355 C57204.8,162.361,57204.6,161.284,57204.6,160.175 C57204.6,157.174,57206.2,154.401,57208.8,152.9 C57211.4,151.4,57214.6,151.4,57217.2,152.9 C57219.8,154.401,57221.4,157.174,57221.4,160.175 C57221.4,163.176,57219.8,165.949,57217.2,167.45 C57214.9,168.759,57212.2,168.926,57209.8,167.95 z"/>
        </defs>
        <use style="fill:#000000;fill-opacity:1;fill-rule:evenodd;opacity:1;stroke:none;" xlink:href="#88"/>
      </g>
    </defs>
    <use xlink:href="#87"/>
    <defs>
      <title>Shape 254</title>
      <g id="89">
        <defs>
          <path id="90" d="M57781,167.95 C57771.7,177.325,57762.3,186.699,57752.9,196.073 C57752.9,196.073,57752,197.025,57752,197.025 C57752,197.025,57750.6,197.025,57750.6,197.025 C57739.9,197.025,57729.1,197.025,57718.4,197.025 C57707.5,207.908,57696.6,218.791,57685.7,229.673 C57684.2,228.141,57682.6,226.609,57681.1,225.077 C57692.3,213.877,57703.5,202.677,57714.7,191.477 C57715,191.16,57715.3,190.842,57715.7,190.525 C57715.7,190.525,57717,190.525,57717,190.525 C57727.8,190.525,57738.5,190.525,57749.3,190.525 C57758.3,181.468,57767.4,172.412,57776.4,163.355 C57776,162.361,57775.8,161.284,57775.8,160.175 C57775.8,157.174,57777.4,154.401,57780,152.9 C57782.6,151.4,57785.8,151.4,57788.4,152.9 C57791,154.401,57792.6,157.174,57792.6,160.175 C57792.6,163.176,57791,165.949,57788.4,167.45 C57786.1,168.759,57783.4,168.926,57781,167.95 z"/>
        </defs>
        <use style="fill:#000000;fill-opacity:1;fill-rule:evenodd;opacity:1;stroke:none;" xlink:href="#90"/>
      </g>
    </defs>
    <use xlink:href="#89"/>
    <defs>
      <title>Shape 253</title>
      <g id="91">
        <defs>
          <path id="92" d="M57440.5,230.625 C57431.8,230.625,57423.2,230.625,57414.6,230.625 C57403.4,230.625,57392.2,230.625,57381,230.625 C57369.8,230.625,57358.6,230.625,57347.4,230.625 C57347.4,230.625,57346.1,230.625,57346.1,230.625 C57345.7,230.308,57345.4,229.99,57345.1,229.673 C57333.9,218.473,57322.7,207.273,57311.5,196.073 C57313,194.541,57314.6,193.009,57316.1,191.477 C57327,202.359,57337.9,213.242,57348.8,224.125 C57359.5,224.125,57370.3,224.125,57381,224.125 C57392.2,224.125,57403.4,224.125,57414.6,224.125 C57423.2,224.125,57431.8,224.125,57440.5,224.125 C57441.2,222.459,57442.4,221.034,57444,220.1 C57446.6,218.6,57449.8,218.6,57452.4,220.1 C57455,221.601,57456.6,224.374,57456.6,227.375 C57456.6,230.376,57455,233.149,57452.4,234.65 C57449.8,236.15,57446.6,236.15,57444,234.65 C57442.4,233.717,57441.2,232.291,57440.5,230.625 z"/>
        </defs>
        <use style="fill:#000000;fill-opacity:1;fill-rule:evenodd;opacity:1;stroke:none;" xlink:href="#92"/>
      </g>
    </defs>
    <use xlink:href="#91"/>
    <defs>
      <title>Shape 252</title>
      <g id="93">
        <defs>
          <path id="94" d="M57205.3,230.625 C57196.6,230.625,57188,230.625,57179.4,230.625 C57179.4,230.625,57178.1,230.625,57178.1,230.625 C57177.7,230.308,57177.4,229.99,57177.1,229.673 C57165.9,218.473,57154.7,207.273,57143.5,196.073 C57145,194.541,57146.6,193.009,57148.1,191.477 C57159,202.359,57169.9,213.242,57180.8,224.125 C57188.9,224.125,57197.1,224.125,57205.3,224.125 C57206,222.459,57207.2,221.034,57208.8,220.1 C57211.4,218.6,57214.6,218.6,57217.2,220.1 C57219.8,221.601,57221.4,224.374,57221.4,227.375 C57221.4,230.376,57219.8,233.149,57217.2,234.65 C57214.6,236.15,57211.4,236.15,57208.8,234.65 C57207.2,233.717,57206,232.291,57205.3,230.625 z"/>
        </defs>
        <use style="fill:#000000;fill-opacity:1;fill-rule:evenodd;opacity:1;stroke:none;" xlink:href="#94"/>
      </g>
    </defs>
    <use xlink:href="#93"/>
    <defs>
      <title>Shape 251</title>
      <g id="95">
        <defs>
          <path id="96" d="M57675.7,264.225 C57667,264.225,57658.4,264.225,57649.8,264.225 C57638.6,264.225,57627.4,264.225,57616.2,264.225 C57616.2,264.225,57614.9,264.225,57614.9,264.225 C57614.5,263.908,57614.2,263.59,57613.9,263.273 C57602.7,252.073,57591.5,240.873,57580.3,229.673 C57569.1,218.473,57557.9,207.273,57546.7,196.073 C57548.2,194.541,57549.8,193.009,57551.3,191.477 C57562.5,202.677,57573.7,213.877,57584.9,225.077 C57595.8,235.96,57606.7,246.842,57617.6,257.725 C57628.3,257.725,57639.1,257.725,57649.8,257.725 C57658.4,257.725,57667,257.725,57675.7,257.725 C57676.4,256.059,57677.6,254.634,57679.2,253.7 C57681.8,252.2,57685,252.2,57687.6,253.7 C57690.2,255.201,57691.8,257.974,57691.8,260.975 C57691.8,263.976,57690.2,266.749,57687.6,268.25 C57685,269.75,57681.8,269.75,57679.2,268.25 C57677.6,267.316,57676.4,265.891,57675.7,264.225 C57675.7,264.225,57675.7,264.225,57675.7,264.225 z"/>
        </defs>
        <use style="fill:#000000;fill-opacity:1;fill-rule:evenodd;opacity:1;stroke:none;" xlink:href="#96"/>
      </g>
    </defs>
    <use xlink:href="#95"/>
    <defs>
      <title>Shape 250</title>
      <g id="97">
        <defs>
          <path id="98" d="M57138.1,-172.575 C57129.4,-172.575,57120.8,-172.575,57112.2,-172.575 C57101,-172.575,57089.8,-172.575,57078.6,-172.575 C57067.4,-172.575,57056.2,-172.575,57045,-172.575 C57033.8,-172.575,57022.6,-172.575,57011.4,-172.575 C57000.2,-172.575,56989,-172.575,56977.8,-172.575 C56977.8,-172.575,56977.8,-179.075,56977.8,-179.075 C56989,-179.075,57000.2,-179.075,57011.4,-179.075 C57022.6,-179.075,57033.8,-179.075,57045,-179.075 C57056.2,-179.075,57067.4,-179.075,57078.6,-179.075 C57089.8,-179.075,57101,-179.075,57112.2,-179.075 C57120.8,-179.075,57129.4,-179.075,57138.1,-179.075 C57138.8,-180.741,57140,-182.166,57141.6,-183.1 C57144.2,-184.6,57147.4,-184.6,57150,-183.1 C57152.6,-181.599,57154.2,-178.826,57154.2,-175.825 C57154.2,-172.824,57152.6,-170.051,57150,-168.55 C57147.4,-167.05,57144.2,-167.05,57141.6,-168.55 C57140,-169.484,57138.8,-170.909,57138.1,-172.575 z"/>
        </defs>
        <use style="fill:#000000;fill-opacity:1;fill-rule:evenodd;opacity:1;stroke:none;" xlink:href="#98"/>
      </g>
    </defs>
    <use xlink:href="#97"/>
    <defs>
      <title>Shape 249</title>
      <g id="99">
        <defs>
          <path id="100" d="M57109,-235.25 C57099.7,-225.875,57090.3,-216.501,57080.9,-207.127 C57069.7,-195.927,57058.5,-184.727,57047.3,-173.527 C57045.8,-175.059,57044.2,-176.591,57042.7,-178.123 C57053.9,-189.323,57065.1,-200.523,57076.3,-211.723 C57085.7,-221.097,57095.1,-230.471,57104.4,-239.845 C57104,-240.839,57103.8,-241.916,57103.8,-243.025 C57103.8,-246.026,57105.4,-248.799,57108,-250.3 C57110.6,-251.8,57113.8,-251.8,57116.4,-250.3 C57119,-248.799,57120.6,-246.026,57120.6,-243.025 C57120.6,-240.024,57119,-237.251,57116.4,-235.75 C57114.1,-234.441,57111.4,-234.274,57109,-235.25 z"/>
        </defs>
        <use style="fill:#000000;fill-opacity:1;fill-rule:evenodd;opacity:1;stroke:none;" xlink:href="#100"/>
      </g>
    </defs>
    <use xlink:href="#99"/>
    <defs>
      <title>Shape 248</title>
      <g id="101">
        <defs>
          <path id="102" d="M57205.3,-239.775 C57196.6,-239.775,57188,-239.775,57179.4,-239.775 C57168.7,-239.775,57157.9,-239.775,57147.2,-239.775 C57136.3,-228.892,57125.4,-218.009,57114.5,-207.127 C57103.3,-195.927,57092.1,-184.727,57080.9,-173.527 C57079.4,-175.059,57077.8,-176.591,57076.3,-178.123 C57087.5,-189.323,57098.7,-200.523,57109.9,-211.723 C57121.1,-222.923,57132.3,-234.123,57143.5,-245.323 C57143.8,-245.64,57144.1,-245.958,57144.5,-246.275 C57144.5,-246.275,57145.8,-246.275,57145.8,-246.275 C57145.8,-246.275,57179.4,-246.275,57179.4,-246.275 C57179.4,-246.275,57205.3,-246.275,57205.3,-246.275 C57206,-247.941,57207.2,-249.366,57208.8,-250.3 C57211.4,-251.8,57214.6,-251.8,57217.2,-250.3 C57219.8,-248.799,57221.4,-246.026,57221.4,-243.025 C57221.4,-240.024,57219.8,-237.251,57217.2,-235.75 C57214.6,-234.25,57211.4,-234.25,57208.8,-235.75 C57207.2,-236.683,57206,-238.109,57205.3,-239.775 z"/>
        </defs>
        <use style="fill:#000000;fill-opacity:1;fill-rule:evenodd;opacity:1;stroke:none;" xlink:href="#102"/>
      </g>
    </defs>
    <use xlink:href="#101"/>
    <defs>
      <title>Shape 247</title>
      <g id="103">
        <defs>
          <path id="104" d="M57205.3,-206.175 C57196.6,-206.175,57188,-206.175,57179.4,-206.175 C57168.7,-206.175,57157.9,-206.175,57147.2,-206.175 C57136.3,-195.292,57125.4,-184.409,57114.5,-173.527 C57113,-175.059,57111.4,-176.591,57109.9,-178.123 C57121.1,-189.323,57132.3,-200.523,57143.5,-211.723 C57143.8,-212.04,57144.1,-212.358,57144.5,-212.675 C57144.5,-212.675,57145.8,-212.675,57145.8,-212.675 C57157,-212.675,57168.2,-212.675,57179.4,-212.675 C57188,-212.675,57196.6,-212.675,57205.3,-212.675 C57206,-214.341,57207.2,-215.766,57208.8,-216.7 C57211.4,-218.2,57214.6,-218.2,57217.2,-216.7 C57219.8,-215.199,57221.4,-212.426,57221.4,-209.425 C57221.4,-206.424,57219.8,-203.651,57217.2,-202.15 C57214.6,-200.65,57211.4,-200.65,57208.8,-202.15 C57207.2,-203.083,57206,-204.509,57205.3,-206.175 z"/>
        </defs>
        <use style="fill:#000000;fill-opacity:1;fill-rule:evenodd;opacity:1;stroke:none;" xlink:href="#104"/>
      </g>
    </defs>
    <use xlink:href="#103"/>
  </g>
</svg>